<svg width="281" height="77" viewBox="0 0 281 77" fill="none" xmlns="http://www.w3.org/2000/svg">
<g clip-path="url(#clip0_360_11)">
<path d="M252.08 54.2698H259.28V28.8698C261.58 28.2698 263.98 28.0698 266.38 28.0698C270.38 28.0698 273.08 29.3698 273.08 34.2698V54.3698H280.18V34.0698C280.18 24.8698 275.18 21.2698 266.48 21.2698C261.58 21.2698 255.58 21.9698 252.08 23.3698V54.2698Z" fill="white"/>
<path d="M239.28 38.0698C239.28 44.2698 237.88 48.1698 231.48 48.1698C225.08 48.1698 223.68 44.2698 223.68 38.0698C223.68 31.8698 225.08 28.0698 231.48 28.0698C237.88 28.0698 239.28 31.9698 239.28 38.0698ZM231.48 55.0698C241.68 55.0698 246.48 48.3698 246.48 38.1698C246.48 27.9698 241.98 21.2698 231.48 21.2698C220.98 21.2698 216.38 27.8698 216.38 38.1698C216.38 48.4698 220.88 55.0698 231.48 55.0698Z" fill="white"/>
<path d="M193.17 42.7699C193.17 51.9699 198.27 54.9699 205.27 54.9699C208.07 54.9699 210.77 54.5699 213.37 53.4699L212.27 46.6699C210.07 47.6699 207.67 48.1699 205.27 48.0699C202.37 48.0699 200.47 46.7699 200.47 42.7699V28.6699H212.17V21.8699H200.47V13.3799H193.27V42.7799H193.17V42.7699Z" fill="white"/>
<path d="M180.28 38.0698C180.28 44.2698 178.88 48.1698 172.48 48.1698C166.08 48.1698 164.68 44.2698 164.68 38.0698C164.68 31.8698 166.08 28.0698 172.48 28.0698C178.88 28.0698 180.28 31.9698 180.28 38.0698ZM172.58 55.0698C182.78 55.0698 187.58 48.3698 187.58 38.1698C187.58 27.9698 183.08 21.2698 172.58 21.2698C162.08 21.2698 157.48 27.8698 157.48 38.1698C157.48 48.4698 161.98 55.0698 172.58 55.0698Z" fill="white"/>
<path d="M123.57 54.2699H130.77V28.8699C133.07 28.2699 135.47 28.0699 137.87 28.0699C141.87 28.0699 144.57 29.3699 144.57 34.2699V54.3699H151.67V34.2699C151.67 24.6699 146.27 21.2699 138.17 21.2699C135.67 21.1699 133.17 21.5699 130.77 22.1699V8.36987H123.57V54.2699Z" fill="white"/>
<path d="M89.7801 68.2799H96.9801V54.0799C98.6801 54.6799 100.58 55.0799 102.38 54.9799C112.28 54.9799 117.98 48.5799 117.98 37.5799C117.98 26.5799 112.98 21.1799 101.68 21.1799C97.5801 21.1799 93.5801 21.8799 89.6801 23.1799L89.7801 68.2799ZM110.68 38.0799C110.68 44.7799 108.88 48.1799 102.08 48.1799C100.28 48.2799 98.5801 47.9799 96.9801 47.1799V28.7699C98.5801 28.2699 100.28 27.9699 102.08 28.0699C108.48 28.0699 110.68 30.6699 110.68 38.0699V38.0799Z" fill="white"/>
<path fill-rule="evenodd" clip-rule="evenodd" d="M22.47 52.5699C22.67 52.7699 22.87 52.9699 23.07 53.1699L23.67 53.7699L12.97 66.7699C12.37 66.2699 11.77 65.6699 11.17 65.0699C10.57 64.4699 10.07 63.9699 9.47001 63.2699L22.47 52.5699ZM26.97 56.2699L18.97 71.1699C17.57 70.3699 16.17 69.4699 14.87 68.4699L25.57 55.2699C26.07 55.5699 26.47 55.8699 26.97 56.2699ZM19.97 49.2699C20.27 49.7699 20.57 50.1699 20.87 50.6699L7.77 61.2699C6.77 59.9699 5.87 58.6699 5.07 57.1699L19.97 49.2699ZM30.77 58.0699L25.77 74.1699C24.27 73.6699 22.77 72.9699 21.27 72.2699L29.17 57.3699C29.67 57.6699 30.17 57.8699 30.77 58.0699ZM18.17 45.4699C18.37 45.9699 18.57 46.4699 18.77 46.9699L3.88 54.9699C3.18 53.4699 2.58 51.9699 1.98 50.4699L18.18 45.4699H18.17ZM34.77 59.0699L33.07 75.8699C31.47 75.6699 29.87 75.2699 28.27 74.8699L33.17 58.7699C33.67 58.8699 34.17 58.9699 34.77 59.0699ZM17.07 41.4699C17.17 41.9699 17.27 42.5699 17.37 43.0699L1.27 47.8799C0.870005 46.2799 0.570005 44.6799 0.370005 43.0799L17.07 41.4799V41.4699ZM16.87 37.2699V38.9699L0.0800049 40.5699C-0.0199951 38.9699 -0.0199951 37.2699 0.0800049 35.6699L16.88 37.2699H16.87ZM38.97 59.3699L40.57 76.1699C38.97 76.2699 37.27 76.2699 35.67 76.1699L37.27 59.3699C37.87 59.3699 38.37 59.3699 38.97 59.3699ZM43.07 58.7699L47.97 74.9699C46.37 75.3699 44.77 75.7699 43.17 75.9699L41.47 59.1699C41.97 59.0699 42.57 58.9699 43.07 58.7699ZM17.47 33.1699C17.37 33.6699 17.27 34.2699 17.17 34.7699L0.280005 33.0699C0.480005 31.4699 0.780005 29.8699 1.18 28.2699L17.48 33.1699H17.47ZM46.97 57.4699L54.97 72.3699C53.47 73.0699 51.97 73.6699 50.47 74.2699L45.57 58.0699C45.97 57.8699 46.47 57.6699 46.97 57.4699ZM18.77 29.1799C18.57 29.6799 18.27 30.1799 18.17 30.6799L2.07 25.6799C2.57 24.1799 3.27 22.5799 3.97 21.1799L18.77 29.1799ZM50.57 55.2799L61.27 68.3799C59.97 69.3799 58.57 70.2799 57.17 71.0799L49.17 56.2799C49.67 55.9799 50.17 55.6799 50.57 55.2799ZM20.87 25.5799C20.57 26.0799 20.27 26.4799 19.97 26.9799L5.07 18.9699C5.87 17.5699 6.77 16.1699 7.77 14.8699L20.87 25.5699V25.5799ZM66.77 63.2799C66.27 63.8799 65.67 64.4799 65.07 65.0799C64.47 65.6799 63.87 66.1799 63.27 66.7799L52.57 53.7799L53.17 53.1799L53.77 52.5799L66.77 63.2799ZM12.97 9.46988L23.67 22.4699L23.07 23.0699L22.47 23.6699L9.47001 12.9799C9.97001 12.3799 10.57 11.7799 11.17 11.1799C11.77 10.5799 12.37 9.97988 12.97 9.47988V9.46988ZM71.17 57.1699C70.37 58.5699 69.47 59.9699 68.47 61.2699L55.27 50.5699C55.57 50.0699 55.87 49.6699 56.17 49.1699L71.17 57.1699ZM18.97 5.06988L26.97 19.9699C26.47 20.2699 26.07 20.5699 25.57 20.8699L14.97 7.77988C16.17 6.77988 17.57 5.87988 18.97 5.07988V5.06988ZM74.17 50.3699C73.67 51.8699 73.07 53.4699 72.27 54.8699L57.47 46.9699C57.67 46.4699 57.87 45.9699 58.07 45.4699L74.17 50.3699ZM25.87 1.96988L30.77 18.1699C30.27 18.3699 29.77 18.5699 29.27 18.7699L21.27 3.87988C22.77 3.17988 24.27 2.47988 25.87 1.97988V1.96988ZM75.87 43.1699C75.67 44.7699 75.27 46.3699 74.87 47.9699L58.77 43.0699C58.87 42.5699 58.97 41.9699 59.07 41.4699L75.87 43.1699ZM33.07 0.279883L34.77 17.0799C34.17 17.1799 33.67 17.2799 33.17 17.3799L28.27 1.26988C29.87 0.869883 31.47 0.569883 33.07 0.269883V0.279883ZM76.17 35.6799C76.27 37.2799 76.27 38.9799 76.17 40.5799L59.37 38.9799V37.2799L76.17 35.6799ZM40.57 0.0798828L38.97 16.8799H37.27L35.68 0.0798828C37.28 -0.0201172 38.98 -0.0201172 40.58 0.0798828H40.57ZM74.97 28.2799C75.37 29.8799 75.77 31.4799 75.97 33.0799L59.17 34.7799C59.07 34.2799 58.97 33.6799 58.87 33.1799L74.97 28.2799ZM47.97 1.26988L43.07 17.3699C42.57 17.2699 41.97 17.1699 41.47 17.0699L43.18 0.279883C44.78 0.479883 46.38 0.779883 47.98 1.27988L47.97 1.26988ZM54.97 3.86988L46.97 18.7699C46.47 18.5699 45.97 18.2699 45.47 18.1699L50.38 1.96988C51.98 2.46988 53.48 3.16988 54.98 3.86988H54.97ZM72.37 21.2699C73.07 22.7699 73.67 24.2699 74.27 25.7699L58.17 30.7699C57.97 30.2699 57.77 29.7699 57.57 29.2699L72.37 21.2699ZM61.27 7.76988L50.57 20.8699C50.17 20.5699 49.67 20.2699 49.17 19.9699L57.17 5.06988C58.57 5.86988 59.97 6.76988 61.27 7.76988ZM68.37 14.8699C69.37 16.1699 70.27 17.4699 71.07 18.9699L56.17 26.9699C55.87 26.4699 55.57 26.0699 55.27 25.5699L68.37 14.8699ZM63.27 9.46988C63.87 9.96988 64.47 10.5699 65.07 11.1699C65.67 11.7699 66.17 12.3699 66.77 12.9699L53.77 23.7699C53.57 23.5699 53.37 23.3699 53.17 23.1699L52.57 22.5699L63.27 9.46988Z" fill="white"/>
</g>
<defs>
<clipPath id="clip0_360_11">
<rect width="280.18" height="76.25" fill="white"/>
</clipPath>
</defs>
</svg>
